# xmcd
#
# Track frame offsets: 
#        150
#        13320
#        23868
#        36805
#        50484
#        64327
#        75611
#        88829
#        97893
#        108934
#        121739
#        132499
#        142308
#        153437
#        163845
#        175669
#        188066
#        198525
#        211594
#        224179
#        234989
#        247184
#        258529
#        269813
#        284084
#        294699
#        303053
#        311617
#
# Disc length: 4294 seconds
#
# Revision: 1
# Processed by: cddbd v1.5.2PL0 Copyright (c) Steve Scherf et al.
# Submitted via: ExactAudioCopy v1.1
#
DISCID=b010c41c
DTITLE=Various Artist - Cheap Old Wine And Whiskey
DYEAR=2017
DGENRE=Blues
TTITLE0=Johnny Davis - I'm A Wine Drinker (mono)
TTITLE1=Lick, Slick and Slide - I Got Drunk (mono)
TTITLE2=Lightnin' Hopkins - Drinkin' Woman (mono)
TTITLE3=Sonny Boy Williams - Bring Another Half A Pint (mono)
TTITLE4=Jimmy Rodgers - Sloppy Drunk (mono)
TTITLE5=Bill Walker - Wineo (mono)
TTITLE6=Amos Milburn - Bad, Bad Whiskey (mono)
TTITLE7=Square Walton - Bad Hangover (mono)
TTITLE8=Johnny Wright - Wine Head (mono)
TTITLE9=Dave Bartholomew - Who Drank My Beer While I Was In The Rear (
TTITLE9=mono)
TTITLE10=Wilbert Harrison - Gin And Coconut Milk (mono)
TTITLE11=Birmingham Jones - Drinkin' Again (mono)
TTITLE12=Peppermint Harris - I Got Loaded (mono)
TTITLE13=Al Jackson - Let's Drink Some Whiskey (mono)
TTITLE14=Larry Dall - Drinkin' Wine (mono)
TTITLE15=Robert Garrett - Quit My Drinkin' (mono)
TTITLE16=J.B. Lenoir - Give Me One More Shot (mono)
TTITLE17=Jimmy McCracklin - Beer Tavern (mono)
TTITLE18=Richard Bros. - Drunk Drivers Comin' (mono)
TTITLE19=Jimmy Liggins - I Ain't Drunk (mono)
TTITLE20=Floyd Dixon - Wine Wine Wine (mono)
TTITLE21=Jimmy Raney and Slim Slaughter - You Drink Too Much Booze (mono
TTITLE21=)
TTITLE22=Calvin Boze - Waiting and Drinking (mono)
TTITLE23=Jack 'The Bear' Parker - Cheap Old Wine And Whiskey (mono)
TTITLE24=Calvin Boze - Looped (mono)
TTITLE25=Lazy Slim Jim - Wine Head Baby (mono)
TTITLE26=The Capitals - Hangover (mono)
TTITLE27=Rufus Gore - Fire Water (mono)
EXTD=
EXTT0=
EXTT1=
EXTT2=
EXTT3=
EXTT4=
EXTT5=
EXTT6=
EXTT7=
EXTT8=
EXTT9=
EXTT10=
EXTT11=
EXTT12=
EXTT13=
EXTT14=
EXTT15=
EXTT16=
EXTT17=
EXTT18=
EXTT19=
EXTT20=
EXTT21=
EXTT22=
EXTT23=
EXTT24=
EXTT25=
EXTT26=
EXTT27=
PLAYORDER=
